<svg xmlns="http://www.w3.org/2000/svg" width="6in" height="4in" viewBox="0 0 432 288"><title>cover_final</title><rect width="432" height="288" style="fill:#132437"/><path d="M253.439,66.022c-21.8-49.439,14.218-33.354,14.218-33.354,9.8-16.926,23.033,2.414,23.033,2.414,7.377-6.976,22.685,2.737,20.778,19.921Z" style="fill:#ed2d24"/><path d="M160.5,129.923c-3.733-44.2-29.881-44.485-39.481-44.448-7.585.03,8.26,21.131,8.26,21.131s-14.155-1.985-22.7-1c-7.016.81,11.96,26.986,11.96,26.986s-11.305-1.672-21.1-.725c-5.828.564,13.834,31.161,13.834,31.161s-11.965-.479-17.384-0.085,7.171,26.707,28.022,41.562l24.779-52.864Z" style="fill:#ed2d24"/><path d="M103.692,167.452c-6.066.2,7.05,24.846,10.458,32.24A110.561,110.561,0,0,0,148.7,242.072c23.131,17.1,52.83,22.746,81.225,19.19,26.173-3.278,53.118-15.124,71.892-33.915,20.216-20.235,24.564-50.046,15.8-76.83q-0.757-2.313-1.656-4.576c-4.56-11.42-13.382-23.97-10.684-36.812C307.435,98.853,315.761,91.288,323,84.32c5.018-4.828,9.781-9.091,16.368-12.793-4.286-7.121-32.558-28.886-56.065-26.8-21.555,1.916-40.691,22.569-39.927,44.4,0.588,16.8,13.742,35.758-1,50.2-23.73,23.254-67.2,2.829-81.268-21.5-3.1-5.365-9.459-27.324-28.583-26.7-5.656.184,3.7,21.627,5.372,29.092,0,0-3.187-9.456-18.976-8.941-4.661.152,8.18,33.369,8.18,33.369a20.73,20.73,0,0,0-16.9-7.548c-6.711.219,8.975,36.339,8.975,36.339S114.88,167.088,103.692,167.452Z" style="fill:#fdba1e"/><path d="M159.174,224.282c-1.121,3.5,5.411,7.585,7.6,9.037,18.729,12.453,43.369,14.237,64.49,7.426,18.554-5.983,37.194-20.483,28.547-43.069-8.516-22.243-64.108-28.613-71.926-26.8a1.612,1.612,0,0,0-.748.279C184.587,173.488,199.6,186.1,199.6,186.1s-25.565-3.285-27.675.9,18.922,17.728,18.922,17.728-27.87-5.082-28.459-.2,21.264,20.647,21.264,20.647S159.958,221.837,159.174,224.282Z" style="fill:#ed2d24"/><circle cx="289.266" cy="65.62" r="8.252" transform="matrix(0.981, -0.194, 0.194, 0.981, -7.233, 57.299)" style="fill:#132437"/></svg>