<svg xmlns="http://www.w3.org/2000/svg" width="6in" height="4in" viewBox="0 0 432 288"><title>page_1_quaint</title><rect width="432" height="288" style="fill:#132437"/><path d="M283.769,70.7a30.723,30.723,0,0,1,2.61-26.591c8.243-13.739,16.815-4.024,16.815-4.024,14.041-9.148,22.67,2.3,22.67,2.3s4.044-9.257,12.21,1.34,4.741,25.483,4.741,25.483Zm-132.2,23.427S140.532,48.862,133.153,49.1s-14.787,39.589-14.787,39.589-3.925-13.777-7.832-13.65-12.655,51.687-12.655,51.687-14.154-15.415-15.532-9.923c-0.769,3.067,18.253,66.757,18.253,66.757l38.52-44.708Z" style="fill:#ed2d24"/><path d="M94.948,156.806a106.837,106.837,0,0,0,110.26,103.3c25.957-.846,51.377-11.21,71.066-28.044,21.687-18.543,33.235-42.6,36.472-70.672,1.546-13.409,1.663-25.433,8.98-37.3,6.191-10.037,15.357-17.893,25.334-24.008a115.987,115.987,0,0,1,20.62-10.056c-3.078-7.72-27.458-33.771-50.993-35.51-18.2-1.345-34.013,9.969-43.065,25.086-12.266,20.484-16.944,53.907-41.259,64.329-28.8,12.346-63.737-8.745-74.127-36.182l-8.845-23.359c-3.424-8.769-9.241-7.276-11.591.622a93.3,93.3,0,0,0-3.04,16.72s-6.1-7.3-10.272-5.205-2.856,32.357-2.856,32.357-12.07-10.361-16.132-5.015,3.655,32.145,3.655,32.145S94.556,144.776,94.948,156.806Z" style="fill:#fdba1e"/><path d="M223.254,216.106a25.392,25.392,0,0,0,5.394-8.759c2.252-6.154.947-13.929-4.005-18.384-6.828-6.143-17-9.689-24.661-14.946a213.5,213.5,0,0,1-23.886-19.208,7.885,7.885,0,0,0-2.866-1.928,2.824,2.824,0,0,0-3.142.846,3.452,3.452,0,0,0-.445,2.142c0.207,4.157,3.012,7.819,3.378,11.965a3.294,3.294,0,0,1-.72,2.725c-3.26,3.075-14.724-1.257-17.152-2.836-1.059-.688-2.491-1.37-3.484-0.591a2.811,2.811,0,0,0-.837,1.581c-1.723,6.751,1.184,13.875,5.21,19.561,2.041,2.883,5.452,6.69,4.024,10.494-2.447,6.516-15.379-4.929-16.313,2.073-0.349,2.619,12.582,26.1,42.157,26.871C198.414,228.04,214.218,225.712,223.254,216.106Z" style="fill:#ed2d24"/><circle cx="308.011" cy="81.208" r="8.252" transform="translate(-2.481 10.075) rotate(-1.866)" style="fill:#132437"/></svg>
